<svg width="17" height="17" viewBox="0 0 17 17" fill="none" xmlns="http://www.w3.org/2000/svg">
<g clip-path="url(#clip0_1_449)">
<path fill-rule="evenodd" clip-rule="evenodd" d="M8.52222 15.2891C8.75255 15.2891 9.36488 15.0634 10.009 13.7751C10.2851 13.2228 10.5219 12.5512 10.697 11.7891H6.34742C6.52249 12.5512 6.75929 13.2228 7.03543 13.7751C7.67956 15.0634 8.29189 15.2891 8.52222 15.2891ZM6.09984 10.2891C6.04938 9.80989 6.02222 9.30823 6.02222 8.78912C6.02222 8.27001 6.04938 7.76835 6.09984 7.28912H10.9446C10.995 7.76835 11.0222 8.27001 11.0222 8.78912C11.0222 9.30823 10.995 9.80989 10.9446 10.2891H6.09984ZM12.2314 11.7891C12.0044 12.9108 11.6539 13.9061 11.2136 14.7075C12.5359 14.1052 13.6209 13.0728 14.29 11.7891H12.2314ZM14.8483 10.2891H12.452C12.4981 9.80324 12.5222 9.30181 12.5222 8.78912C12.5222 8.27643 12.4981 7.775 12.452 7.28912H14.8483C14.962 7.77064 15.0222 8.27285 15.0222 8.78912C15.0222 9.30539 14.962 9.8076 14.8483 10.2891ZM4.59242 10.2891H2.19615C2.08241 9.8076 2.02222 9.30539 2.02222 8.78912C2.02222 8.27285 2.08241 7.77064 2.19615 7.28912H4.59242C4.54633 7.775 4.52222 8.27643 4.52222 8.78912C4.52222 9.30181 4.54633 9.80324 4.59242 10.2891ZM2.75443 11.7891H4.81298C5.04001 12.9108 5.39054 13.9061 5.83086 14.7075C4.50857 14.1052 3.4235 13.0728 2.75443 11.7891ZM6.34742 5.78912H10.697C10.5219 5.02705 10.2851 4.35538 10.009 3.80309C9.36488 2.51483 8.75255 2.28912 8.52222 2.28912C8.29189 2.28912 7.67956 2.51483 7.03543 3.80309C6.75929 4.35538 6.52249 5.02705 6.34742 5.78912ZM12.2314 5.78912H14.29C13.6209 4.50539 12.5359 3.47301 11.2136 2.87074C11.6539 3.67214 12.0044 4.66742 12.2314 5.78912ZM5.83086 2.87074C5.39054 3.67214 5.04001 4.66742 4.81298 5.78912H2.75443C3.4235 4.5054 4.50857 3.47301 5.83086 2.87074ZM8.52222 0.789124C12.9405 0.789124 16.5222 4.37084 16.5222 8.78912C16.5222 13.2074 12.9405 16.7891 8.52222 16.7891C4.10394 16.7891 0.522217 13.2074 0.522217 8.78912C0.522217 4.37084 4.10394 0.789124 8.52222 0.789124Z" fill="white"/>
</g>
<defs>
<clipPath id="clip0_1_449">
<rect width="16" height="16" fill="white" transform="translate(0.522217 0.789124)"/>
</clipPath>
</defs>
</svg>
